<?xml version="1.0" encoding="utf-8"?>
<!-- Generator: Adobe Illustrator 28.0.0, SVG Export Plug-In . SVG Version: 6.00 Build 0)  -->
<svg version="1.1" id="Layer_1" xmlns="http://www.w3.org/2000/svg" xmlns:xlink="http://www.w3.org/1999/xlink" x="0px" y="0px"
	 viewBox="0 0 800 800" style="enable-background:new 0 0 800 800;" xml:space="preserve">
<style type="text/css">
	.st0{fill:#FCC44C;}
</style>
<g id="SVGRepo_bgCarrier">
</g>
<g id="SVGRepo_tracerCarrier">
</g>
<g id="SVGRepo_iconCarrier">
	<path class="st0" d="M694.4,719c0,36.1-29.3,65.4-65.4,65.4H171.1c-36.1,0-65.4-29.3-65.4-65.4V261.1c0-36.1,29.3-65.4,65.4-65.4
		H629c36.1,0,65.4,29.3,65.4,65.4V719z"/>
	<path d="M176,356.5c-1.5-5.6-2.1-11.4-2-17.2c0-16.2,13.7-33.5,36-33.5c24.3,0,36,14.2,40.6,36.5l43.1,215.5h1l65.9-222.1
		c5.6-18.3,20.8-29.9,39.5-29.9c18.8,0,34,11.7,39.6,29.9l65.9,222.1h1l43.1-215.5c4.5-22.3,16.2-36.5,40.6-36.5
		c22.3,0,36,17.2,36,33.5c0,7.1-0.5,10.6-2,17.2l-64.4,276.9c-5.1,21.3-21.8,39.5-50.2,39.5c-23.1,0.3-43.6-14.8-50.2-37
		l-58.8-195.7h-1l-58.8,195.7c-6.6,22.2-27.1,37.3-50.2,37c-28.4,0-45.1-18.2-50.2-39.5L176,356.5z"/>
</g>
<path class="st0" d="M328.7,211.7L328.7,211.7c-8.4,3.2-18.2,2-21.8-2.8L188.4,50.8c-3.6-4.8,0.4-11.4,8.8-14.6l0,0
	c8.4-3.2,18.2-2,21.8,2.8l118.5,158.1C341.1,201.9,337.1,208.5,328.7,211.7z"/>
<path class="st0" d="M600.2,34.7L600.2,34.7c8.2,2.9,12.1,9.3,8.7,14.2L497.8,209.9c-3.4,4.9-12.8,6.5-21,3.6h0
	c-8.2-2.9-12.1-9.3-8.7-14.2L579.3,38.3C582.7,33.4,592.1,31.8,600.2,34.7z"/>
</svg>
