<svg xmlns="http://www.w3.org/2000/svg" xmlns:xlink="http://www.w3.org/1999/xlink" width="55" height="56" viewBox="0 0 55 56">
  <defs>
    <filter id="trailer_butn" x="0" y="0" width="55" height="56" filterUnits="userSpaceOnUse">
      <feOffset dx="6" dy="6" input="SourceAlpha"/>
      <feGaussianBlur result="blur"/>
      <feFlood flood-color="#fff" flood-opacity="0.161"/>
      <feComposite operator="in" in2="blur"/>
      <feComposite in="SourceGraphic"/>
    </filter>
  </defs>
  <g id="play" transform="translate(-66 -873.004)">
    <g transform="matrix(1, 0, 0, 1, 66, 873)" filter="url(#trailer_butn)">
      <g id="trailer_butn-2" data-name="trailer butn" fill="#ffc44d" stroke="#707070" stroke-width="1">
        <rect width="49" height="50" rx="10" stroke="none"/>
        <rect x="0.5" y="0.5" width="48" height="49" rx="9.5" fill="none"/>
      </g>
    </g>
    <g id="Polygon_1" data-name="Polygon 1" transform="translate(105.878 874.974) rotate(90)" fill="#28282b">
      <path d="M 34.23899841308594 24.87166404724121 L 8.374116897583008 24.87166404724121 C 7.387026786804199 24.87166404724121 6.543716907501221 24.33990287780762 6.118256568908691 23.4492130279541 C 5.692806720733643 22.55851364135742 5.809156894683838 21.5683536529541 6.429496765136719 20.8005428314209 L 19.3619270324707 4.793733596801758 C 19.8388671875 4.203423500061035 20.54765701293945 3.864863395690918 21.30655670166016 3.864863395690918 C 22.06545639038086 3.864863395690918 22.77424621582031 4.203423500061035 23.25118637084961 4.793733596801758 L 36.18362808227539 20.8005428314209 C 36.803955078125 21.5683536529541 36.92030715942383 22.55851364135742 36.49485778808594 23.4492130279541 C 36.06939697265625 24.33990287780762 35.2260856628418 24.87166404724121 34.23899841308594 24.87166404724121 Z" stroke="none"/>
      <path d="M 21.30655670166016 5.364864349365234 C 21.12816619873047 5.364864349365234 20.78988647460938 5.41313362121582 20.52870750427246 5.736404418945312 L 7.596267700195312 21.74321365356445 C 7.251476287841797 22.16997337341309 7.370265960693359 22.59018325805664 7.471775054931641 22.80268287658691 C 7.573276519775391 23.01518249511719 7.825477600097656 23.37166404724121 8.374114990234375 23.37166404724121 L 34.23899841308594 23.37166404724121 C 34.78763580322266 23.37166404724121 35.03983688354492 23.01518249511719 35.14133834838867 22.80268287658691 C 35.24283599853516 22.59018325805664 35.36163711547852 22.16998291015625 35.01683807373047 21.74321365356445 L 22.08440589904785 5.736404418945312 C 21.82322692871094 5.41313362121582 21.48494720458984 5.364864349365234 21.30655670166016 5.364864349365234 M 21.30655670166016 2.364860534667969 C 22.46200752258301 2.364860534667969 23.61745643615723 2.860258102416992 24.4179573059082 3.851053237915039 L 37.35038757324219 19.85786437988281 C 39.4638671875 22.47377395629883 37.60199737548828 26.37166404724121 34.23899841308594 26.37166404724121 L 8.374114990234375 26.37166404724121 C 5.011116027832031 26.37166404724121 3.149246215820312 22.47377395629883 5.262718200683594 19.85786437988281 L 18.19515609741211 3.851053237915039 C 18.99565696716309 2.860258102416992 20.1511058807373 2.364860534667969 21.30655670166016 2.364860534667969 Z" stroke="none" fill="#fff"/>
    </g>
  </g>
</svg>
